<svg width="470" height="422" viewBox="0 0 470 422" fill="none" xmlns="http://www.w3.org/2000/svg">
<path d="M205.919 80.8241L205.773 383.416L232.797 368.37L232.286 65.7055L205.919 80.8241Z" fill="white"/>
<path d="M230.825 63.1492L206.138 48.4688L179.48 63.9525L204.459 78.341L230.825 63.1492Z" fill="white"/>
<path d="M178.019 66.4359L177.873 96.454L202.998 111.134V80.8241L178.019 66.4359Z" fill="white"/>
<path d="M201.61 113.691L194.16 109.382L176.266 98.8642L149.462 114.348L175.244 128.882L201.61 113.691Z" fill="white"/>
<path d="M176.778 163.429V166.35L177.216 368.663L202.852 383.343L202.998 116.247L176.705 131.439L176.778 163.429Z" fill="white"/>
<path d="M147.344 182.638L147.417 213.824V216.016L147.782 383.562L174.294 368.59L173.856 167.373L147.344 182.638Z" fill="white"/>
<path d="M147.928 147.507L173.856 162.406L173.783 131.439L148.074 116.904L147.928 147.507Z" fill="white"/>
<path d="M172.322 164.89L146.175 149.844L119.371 165.328L145.883 180.081L172.322 164.89Z" fill="white"/>
<path d="M117.983 232.96V368.444L144.861 383.562L144.495 217.695L117.983 232.96Z" fill="white"/>
<path d="M117.983 167.811L117.837 197.464L144.495 212.875L144.422 182.638L117.983 167.811Z" fill="white"/>
<path d="M142.815 215.285L116.668 200.239L115.865 200.678L90.0097 215.65L116.522 230.404L142.815 215.285Z" fill="white"/>
<path d="M88.7681 283.721V383.708L115.061 368.444V268.529L114.112 269.113L88.7681 283.721Z" fill="white"/>
<path d="M115.061 263.49V232.96L88.476 218.134L88.403 248.079L115.061 263.49Z" fill="white"/>
<path d="M113.601 265.973L86.8692 250.562L60.2107 265.973L87.3074 281.164L113.601 265.973Z" fill="white"/>
<path d="M58.75 368.444L85.8467 383.708V283.721L58.75 268.456V368.444Z" fill="white"/>
<path d="M261.878 80.8241L262.024 383.416L235 368.37L235.511 65.7055L261.878 80.8241Z" fill="white"/>
<path d="M236.972 63.1492L261.658 48.4688L288.317 63.9525L263.338 78.341L236.972 63.1492Z" fill="white"/>
<path d="M289.778 66.4359L289.924 96.454L264.799 111.134V80.8241L289.778 66.4359Z" fill="white"/>
<path d="M266.187 113.691L273.636 109.382L291.53 98.8642L318.335 114.348L292.553 128.882L266.187 113.691Z" fill="white"/>
<path d="M291.019 163.429V166.35L290.581 368.663L264.945 383.343L264.799 116.247L291.092 131.439L291.019 163.429Z" fill="white"/>
<path d="M320.453 182.638L320.38 213.824V216.016L320.015 383.562L293.503 368.59L293.941 167.373L320.453 182.638Z" fill="white"/>
<path d="M319.869 147.507L293.941 162.406L294.014 131.439L319.723 116.904L319.869 147.507Z" fill="white"/>
<path d="M295.474 164.89L321.622 149.844L348.426 165.328L321.914 180.081L295.474 164.89Z" fill="white"/>
<path d="M349.814 232.96V368.443L322.936 383.562L323.302 217.695L349.814 232.96Z" fill="white"/>
<path d="M349.814 167.811L349.96 197.464L323.302 212.875L323.375 182.638L349.814 167.811Z" fill="white"/>
<path d="M324.981 215.285L351.129 200.239L351.932 200.678L377.787 215.65L351.275 230.404L324.981 215.285Z" fill="white"/>
<path d="M379.029 283.721V383.708L352.735 368.443V268.529L353.685 269.113L379.029 283.721Z" fill="white"/>
<path d="M352.735 263.489V232.96L379.321 218.134L379.394 248.079L352.735 263.489Z" fill="white"/>
<path d="M354.196 265.973L380.928 250.562L407.586 265.973L380.489 281.164L354.196 265.973Z" fill="white"/>
<path d="M409.047 368.443L381.95 383.708V283.721L409.047 268.456V368.443Z" fill="white"/>
<circle cx="232.797" cy="24.2344" r="23.1328" fill="white" stroke="white" stroke-width="2.20313"/>
<path fill-rule="evenodd" clip-rule="evenodd" d="M470 367.187C470 397.201 364.787 421.531 235 421.531C105.213 421.531 0 397.201 0 367.187C0 353.684 21.2969 341.331 56.5469 331.827V335.619C38.3484 342.504 27.9062 350.534 27.9062 359.109C27.9062 384.661 120.625 405.375 235 405.375C349.375 405.375 442.094 384.661 442.094 359.109C442.094 350.194 430.806 341.868 411.25 334.805V331.241C447.814 340.821 470 353.405 470 367.187ZM235.221 312.844H235.438C235.292 312.844 235.146 312.844 235 312.844C234.854 312.844 234.708 312.844 234.562 312.844H234.779C234.853 312.844 234.926 312.844 235 312.844C235.074 312.844 235.147 312.844 235.221 312.844Z" fill="white"/>
</svg>
